<svg width="29" height="28" viewBox="0 0 29 28" fill="none" xmlns="http://www.w3.org/2000/svg">
<path d="M25.6549 9.10997V9.11134V18.888C25.6549 20.9119 25.0536 22.4672 24.0047 23.5161C22.9558 24.565 21.4005 25.1663 19.3766 25.1663H9.61159C7.5877 25.1663 6.03251 24.565 4.98369 23.5149C3.93481 22.4647 3.33325 20.9064 3.33325 18.8763V9.11134C3.33325 7.08744 3.9346 5.5321 4.98347 4.48323C6.03235 3.43435 7.58769 2.83301 9.61159 2.83301H19.3883C21.4122 2.83301 22.9674 3.43439 24.0147 4.48301C25.0619 5.53151 25.6605 7.08639 25.6549 9.10997ZM10.0549 15.1763H11.7367C11.6706 15.8627 11.5423 16.2314 11.3585 16.4944C11.122 16.8332 10.7539 17.0655 10.0209 17.5017L10.0193 17.5026C9.37512 17.8891 9.15912 18.7297 9.54136 19.3849C9.79976 19.8279 10.2615 20.0647 10.7316 20.0647C10.9615 20.0647 11.202 20.0111 11.4269 19.8799L11.4297 19.8782C12.4781 19.2574 13.3008 18.6906 13.828 17.7609C14.3014 16.926 14.5052 15.8561 14.5396 14.313H14.5566V13.813V13.2125C14.8923 14.3596 15.9378 15.1763 17.2066 15.1763H18.9C18.834 15.8627 18.7056 16.2314 18.5219 16.4944C18.2853 16.8332 17.9172 17.0655 17.1842 17.5017L17.1827 17.5026C16.5385 17.8891 16.3224 18.7297 16.7047 19.3849C16.9631 19.8279 17.4249 20.0647 17.8949 20.0647C18.1249 20.0647 18.3653 20.0111 18.5902 19.8799L18.593 19.8782C19.6414 19.2574 20.4641 18.6906 20.9913 17.7609C21.5142 16.8387 21.7083 15.6298 21.7083 13.813V10.6863C21.7083 9.16187 20.4694 7.92301 18.9449 7.92301H17.2066C15.8527 7.92301 14.753 8.85306 14.4987 10.122C14.2377 8.86754 13.1244 7.92301 11.7933 7.92301H10.0549C8.50711 7.92301 7.29158 9.13853 7.29158 10.6863V12.413C7.29158 13.9608 8.50711 15.1763 10.0549 15.1763Z" fill="#A6A6A6" stroke="#A6A6A6"/>
</svg>
