<svg width="29" height="28" viewBox="0 0 29 28" fill="none" xmlns="http://www.w3.org/2000/svg">
<path d="M9.45825 7.87467C9.45825 5.09415 11.7194 2.83301 14.4999 2.83301C17.2801 2.83301 19.5411 5.09363 19.5416 7.87371C19.5305 10.6016 17.4017 12.8048 14.6893 12.9047H14.6893H14.6892H14.6892H14.6891H14.6891H14.6891H14.689H14.689H14.689H14.6889H14.6889H14.6889H14.6888H14.6888H14.6887H14.6887H14.6887H14.6886H14.6886H14.6886H14.6885H14.6885H14.6885H14.6884H14.6884H14.6884H14.6883H14.6883H14.6882H14.6882H14.6882H14.6881H14.6881H14.6881H14.688H14.688H14.688H14.6879H14.6879H14.6879H14.6878H14.6878H14.6878H14.6877H14.6877H14.6876H14.6876H14.6876H14.6875H14.6875H14.6875H14.6874H14.6874H14.6874H14.6873H14.6873H14.6873H14.6872H14.6872H14.6872H14.6871H14.6871H14.6871H14.687H14.687H14.687H14.6869H14.6869H14.6869H14.6868H14.6868H14.6868H14.6867H14.6867H14.6867H14.6866H14.6866H14.6866H14.6865H14.6865H14.6864H14.6864H14.6864H14.6863H14.6863H14.6863H14.6862H14.6862H14.6862H14.6861H14.6861H14.6861H14.686H14.686H14.686H14.6859H14.6859H14.6859H14.6858H14.6858H14.6858H14.6857H14.6857H14.6857H14.6856H14.6856H14.6856H14.6855H14.6855H14.6855H14.6854H14.6854H14.6853H14.6853H14.6853H14.6852H14.6852H14.6852H14.6851H14.6851H14.6851H14.685H14.685H14.685H14.6849H14.6849H14.6849H14.6848H14.6848H14.6847H14.6847H14.6847H14.6846H14.6846H14.6846H14.6845H14.6845H14.6845H14.6844H14.6844H14.6844H14.6843H14.6843H14.6842H14.6842H14.6842H14.6841H14.6841H14.6841H14.684H14.684H14.6839H14.6839H14.6839H14.6838H14.6838H14.6838H14.6837H14.6837H14.6836H14.6836H14.6836H14.6835H14.6835H14.6835H14.6834H14.6834H14.6833H14.6833H14.6833H14.6832H14.6832H14.6831H14.6831H14.6831H14.683H14.683H14.683H14.6829H14.6829H14.6828H14.6828H14.6828H14.6827H14.6827H14.6826H14.6826H14.6826H14.6825H14.6825H14.6824H14.6824H14.6823H14.6823H14.6823H14.6822H14.6822H14.6821H14.6821H14.6821H14.682H14.682H14.6819H14.6819H14.6818H14.6818H14.6818H14.6817H14.6817H14.6816H14.6816H14.6815H14.6815H14.6815H14.6814H14.6814H14.6813H14.6813H14.6812H14.6812H14.6811H14.6811H14.6811H14.681H14.681H14.6809H14.6809H14.6808H14.6808H14.6807H14.6807H14.6806H14.6806H14.6805H14.6805H14.6805H14.6804H14.6804H14.6803H14.6803H14.6802H14.6802H14.6801H14.6801H14.68H14.68H14.6799H14.6799H14.6798H14.6798H14.6797H14.6797H14.6796H14.6796H14.6795H14.6795H14.6794H14.6794H14.6793H14.6793H14.6792H14.6792H14.6791H14.6791H14.679H14.679H14.6789H14.6788H14.6788H14.6787H14.6787H14.6786H14.6786H14.6785H14.6785H14.6784H14.6784H14.6783H14.6782H14.6782H14.6781H14.6781H14.678H14.678H14.6779H14.6779H14.6778H14.6777H14.6777H14.6776H14.6776H14.6775H14.6774H14.6774H14.6773H14.6773H14.6772H14.6772H14.6771H14.677H14.677H14.6769H14.6769H14.6768H14.6767H14.6767H14.6766H14.6765H14.6765H14.6764H14.6764H14.6763H14.6762H14.6762H14.6761H14.676H14.676H14.6759H14.6758H14.6758H14.6757H14.6757H14.6756H14.6755H14.6755H14.6754H14.6753H14.6753H14.6752H14.6751H14.6751H14.675H14.6749H14.6748H14.6746H14.6745H14.6744H14.6742H14.6741H14.674H14.6738H14.6737H14.6736H14.6734H14.6733H14.6732H14.673H14.6729H14.6728H14.6726H14.6725H14.6724H14.6722H14.6721H14.672H14.6718H14.6717H14.6716H14.6715H14.6713H14.6712H14.6711H14.6709H14.6708H14.6707H14.6705H14.6704H14.6703H14.6702H14.67H14.6699H14.6698H14.6697H14.6695H14.6694H14.6693H14.6691H14.669H14.6689H14.6688H14.6686H14.6685H14.6684H14.6683H14.6681H14.668H14.6679H14.6678H14.6676H14.6675H14.6674H14.6673H14.6672H14.667H14.6669H14.6668H14.6667H14.6665H14.6664H14.6663H14.6662H14.6661H14.6659H14.6658H14.6657H14.6656H14.6655H14.6653H14.6652H14.6651H14.665H14.6649H14.6647H14.6646H14.6645H14.6644H14.6643H14.6642H14.664H14.6639H14.6638H14.6637H14.6636H14.6635H14.6633H14.6632H14.6631H14.663H14.6629H14.6628H14.6626H14.6625H14.6624H14.6623H14.6622H14.6621H14.6619H14.6618H14.6617H14.6616H14.6615H14.6614H14.6613H14.6611H14.661H14.6609H14.6608H14.6607H14.6606H14.6605H14.6604H14.6602H14.6601H14.66H14.6599H14.6598H14.6597H14.6596H14.6595H14.6594H14.6592H14.6591H14.659H14.6589H14.6588H14.6587H14.6586H14.6585H14.6584H14.6582H14.6581H14.658H14.6579H14.6578H14.6577H14.6576H14.6575H14.6574H14.6573H14.6572H14.657H14.6569H14.6568H14.6567H14.6566H14.6565H14.6564H14.6563H14.6562H14.6561H14.656H14.6559H14.6557H14.6556H14.6555H14.6554H14.6553H14.6552H14.6551H14.655H14.6549H14.6548H14.6547H14.6546H14.6545H14.6544H14.6543H14.6541H14.654H14.6539H14.6538H14.6537H14.6536H14.6535H14.6534H14.6533H14.6532H14.6531H14.653H14.6529H14.6528H14.6527H14.6526H14.6525H14.6524H14.6523H14.6522H14.652H14.6519H14.6518H14.6517H14.6516H14.6515H14.6514H14.6513H14.6512H14.6511H14.6511C14.5492 12.8925 14.4415 12.8939 14.3418 12.9036C11.5683 12.7905 9.45825 10.5885 9.45825 7.87467Z" fill="#A6A6A6" stroke="#A6A6A6"/>
<path d="M20.1493 16.9361L20.1493 16.9361L20.1516 16.9376C21.5139 17.835 22.2025 19.0348 22.2133 20.2555C22.2125 21.4936 21.517 22.6828 20.1476 23.6068C18.6134 24.6368 16.5694 25.1667 14.5 25.1667C12.4303 25.1667 10.3862 24.6368 8.85201 23.6066L8.85064 23.6057C7.48169 22.6931 6.78662 21.5035 6.78662 20.2767C6.78662 19.0492 7.48245 17.8488 8.86079 16.9371L8.86093 16.937C10.4018 15.9171 12.4471 15.3926 14.5145 15.3926C16.5821 15.3926 18.6208 15.9171 20.1493 16.9361ZM12.3766 21.5817H16.635C17.3544 21.5817 17.94 20.9962 17.94 20.2767C17.94 19.5573 17.3544 18.9717 16.635 18.9717H12.3766C11.6571 18.9717 11.0716 19.5573 11.0716 20.2767C11.0716 20.9962 11.6571 21.5817 12.3766 21.5817Z" fill="#A6A6A6" stroke="#A6A6A6"/>
</svg>
