<svg width="29" height="28" viewBox="0 0 29 28" fill="none" xmlns="http://www.w3.org/2000/svg">
<path d="M12.1645 3.60984L12.1649 3.60953C13.4608 2.56872 15.5343 2.57548 16.8481 3.62208C16.8483 3.62218 16.8484 3.62229 16.8485 3.62239L24.4859 9.73224C24.4864 9.73271 24.487 9.73319 24.4876 9.73366C24.9415 10.1043 25.3302 10.6804 25.5801 11.3344C25.8299 11.9881 25.9247 12.677 25.8364 13.2556L24.3675 22.0458C24.3674 22.0463 24.3673 22.0468 24.3672 22.0473C24.0692 23.7585 22.4083 25.1664 20.6835 25.1664H8.31679C6.56732 25.1664 4.94266 23.7923 4.64476 22.0595C4.6447 22.0592 4.64464 22.0588 4.64458 22.0585L3.17495 13.2639L3.17476 13.2628C3.07594 12.6798 3.16509 11.9893 3.41439 11.3356C3.66366 10.6819 4.05731 10.1063 4.52196 9.73554L4.52283 9.73484L12.1645 3.60984ZM14.5001 22.3747C15.2546 22.3747 15.8751 21.7542 15.8751 20.9997V17.4997C15.8751 16.7452 15.2546 16.1247 14.5001 16.1247C13.7456 16.1247 13.1251 16.7452 13.1251 17.4997V20.9997C13.1251 21.7542 13.7456 22.3747 14.5001 22.3747Z" fill="#A6A6A6" stroke="#A6A6A6"/>
</svg>
