<svg width="24" height="24" viewBox="0 0 24 24" fill="none" xmlns="http://www.w3.org/2000/svg">
<path d="M22 4.85005V16.7401C22 17.7101 21.21 18.6001 20.24 18.7201L19.93 18.7601C18.29 18.9801 15.98 19.6601 14.12 20.4401C13.47 20.7101 12.75 20.2201 12.75 19.5101V5.60005C12.75 5.23005 12.96 4.89005 13.29 4.71005C15.12 3.72005 17.89 2.84005 19.77 2.68005H19.83C21.03 2.68005 22 3.65005 22 4.85005Z" fill="#D67251"/>
<path d="M10.71 4.71005C8.87999 3.72005 6.10999 2.84005 4.22999 2.68005H4.15999C2.95999 2.68005 1.98999 3.65005 1.98999 4.85005V16.7401C1.98999 17.7101 2.77999 18.6001 3.74999 18.7201L4.05999 18.7601C5.69999 18.9801 8.00999 19.6601 9.86999 20.4401C10.52 20.7101 11.24 20.2201 11.24 19.5101V5.60005C11.24 5.22005 11.04 4.89005 10.71 4.71005ZM4.99999 7.74005H7.24999C7.65999 7.74005 7.99999 8.08005 7.99999 8.49005C7.99999 8.91005 7.65999 9.24005 7.24999 9.24005H4.99999C4.58999 9.24005 4.24999 8.91005 4.24999 8.49005C4.24999 8.08005 4.58999 7.74005 4.99999 7.74005ZM7.99999 12.2401H4.99999C4.58999 12.2401 4.24999 11.9101 4.24999 11.4901C4.24999 11.0801 4.58999 10.7401 4.99999 10.7401H7.99999C8.40999 10.7401 8.74999 11.0801 8.74999 11.4901C8.74999 11.9101 8.40999 12.2401 7.99999 12.2401Z" fill="#D67251"/>
</svg>
